<?xml version="1.0" standalone="no"?>
<!DOCTYPE svg PUBLIC "-//W3C//DTD SVG 1.1//EN" "http://www.w3.org/Graphics/SVG/1.1/DTD/svg11.dtd">
<svg width="324" height="324" version="1.1" xmlns="http://www.w3.org/2000/svg">
  <title>20 cells diameter theta maze</title>
  <desc>20 cells diameter theta maze generated by The Maze Generator Website (http://www.mazegenerator.net/).</desc>
  <g fill="none" stroke="#000000" stroke-width="2" stroke-linecap="square">
    <path d="M 140.37258300203047,185.62741699796953 A 32,32 0 1,1 163,195" />
    <path d="M 129.05887450304573,129.05887450304573 A 48,48 0 0,1 181.3688047535243,118.65378243945824" />
    <path d="M 196.94112549695427,129.05887450304573 A 48,48 0 0,1 207.34621756054176,144.6311952464757" />
    <path d="M 211,163 A 48,48 0 0,1 163,211" />
    <path d="M 144.6311952464757,207.34621756054176 A 48,48 0 0,1 118.65378243945824,181.36880475352433" />
    <path d="M 115,163 A 48,48 0 0,1 118.65378243945824,144.63119524647567" />
    <path d="M 187.49173967136574,103.87170991927765 A 64,64 0 0,1 208.25483399593904,117.74516600406096" />
    <path d="M 208.25483399593904,208.25483399593904 A 64,64 0 0,1 138.50826032863427,222.12829008072237" />
    <path d="M 117.74516600406096,208.25483399593907 A 64,64 0 0,1 138.50826032863421,103.87170991927766" />
    <path d="M 118.55438135843181,96.482431015796379 A 80,80 0 0,1 193.61467458920717,89.089637399097057" />
    <path d="M 207.44561864156816,96.482431015796379 A 80,80 0 0,1 229.51756898420362,118.55438135843181" />
    <path d="M 236.91036260090294,132.3853254107928 A 80,80 0 0,1 241.46282243225843,147.39277423870973" />
    <path d="M 243,163 A 80,80 0 0,1 241.46282243225843,178.60722576129027" />
    <path d="M 236.91036260090294,193.61467458920717 A 80,80 0 0,1 219.5685424949238,219.5685424949238" />
    <path d="M 207.44561864156816,229.51756898420362 A 80,80 0 0,1 96.482431015796379,207.44561864156816" />
    <path d="M 89.089637399097072,193.61467458920723 A 80,80 0 0,1 89.089637399097072,132.3853254107928" />
    <path d="M 96.482431015796365,118.55438135843184 A 80,80 0 0,1 106.4314575050762,106.43145750507621" />
    <path d="M 83.178917218955633,109.66525763011822 A 96,96 0 0,1 181.72867091354831,68.844613081289879" />
    <path d="M 216.33474236988181,83.178917218955661 A 96,96 0 0,1 230.88225099390854,95.117749006091429" />
    <path d="M 242.82108278104434,109.66525763011819 A 96,96 0 0,1 251.69243512108352,126.26239049295137" />
    <path d="M 257.15538691871012,144.27132908645169 A 96,96 0 0,1 251.69243512108352,199.7376095070486" />
    <path d="M 230.88225099390857,230.88225099390854 A 96,96 0 0,1 144.27132908645169,257.15538691871012" />
    <path d="M 67,163.00000000000003 A 96,96 0 0,1 68.844613081289879,144.27132908645169" />
    <path d="M 163,51 A 112,112 0 0,1 205.86054442489007,59.525492358735889" />
    <path d="M 242.19595949289334,83.804040507106677 A 112,112 0 0,1 256.12459657788509,100.77613390180454" />
    <path d="M 266.4745076412641,120.13945557510994 A 112,112 0 0,1 272.84795140516178,141.14988393419364" />
    <path d="M 256.12459657788509,225.22386609819543 A 112,112 0 0,1 242.19595949289334,242.19595949289331" />
    <path d="M 225.22386609819543,256.12459657788509 A 112,112 0 0,1 205.86054442489007,266.4745076412641" />
    <path d="M 184.85011606580639,272.84795140516178 A 112,112 0 0,1 163,275" />
    <path d="M 141.14988393419361,272.84795140516178 A 112,112 0 0,1 69.875403422114928,225.22386609819546" />
    <path d="M 53.152048594838192,184.85011606580642 A 112,112 0 0,1 53.152048594838192,141.14988393419364" />
    <path d="M 59.525492358735889,120.13945557510992 A 112,112 0 0,1 141.14988393419358,53.152048594838206" />
    <path d="M 138.02843878193554,37.459484108386519 A 128,128 0 0,1 163,35" />
    <path d="M 211.9834793427315,44.7434198385553 A 128,128 0 0,1 281.25658016144473,114.0165206572685" />
    <path d="M 291,163 A 128,128 0 0,1 269.4281103747258,234.11298982650905" />
    <path d="M 234.11298982650908,269.4281103747258 A 128,128 0 0,1 187.97156121806447,288.5405158916135" />
    <path d="M 163.00000000000003,291 A 128,128 0 0,1 91.88701017349095,269.4281103747258" />
    <path d="M 44.743419838555326,211.98347934273156 A 128,128 0 0,1 35,163.00000000000003" />
    <path d="M 37.459484108386505,138.02843878193556 A 128,128 0 0,1 56.571889625274181,91.887010173490964" />
    <path d="M 91.887010173490921,56.57188962527421 A 128,128 0 0,1 114.01652065726843,44.743419838555326" />
    <path d="M 177.11446820745672,19.693399359203653 A 144,144 0 0,1 191.09300637032249,21.766919621934818" />
    <path d="M 218.10641426057293,29.96134731837472 A 144,144 0 0,1 230.88113010294364,36.003337933836875" />
    <path d="M 243.0021135548227,43.268375828433477 A 144,144 0 0,1 254.35263291956494,51.686494715765875" />
    <path d="M 264.82337649086287,61.176623509137158 A 144,144 0 0,1 274.31350528423411,71.647367080435046" />
    <path d="M 289.99666206616314,95.118869897056314 A 144,144 0 0,1 304.23308037806521,134.90699362967752" />
    <path d="M 304.23308037806521,191.09300637032246 A 144,144 0 0,1 300.79940834543811,204.80099352464256" />
    <path d="M 296.03865268162531,218.10641426057293 A 144,144 0 0,1 274.31350528423411,254.35263291956494" />
    <path d="M 264.82337649086287,264.82337649086281 A 144,144 0 0,1 230.8811301029437,289.99666206616314" />
    <path d="M 218.10641426057293,296.03865268162531 A 144,144 0 0,1 163.00000000000003,307" />
    <path d="M 121.19900647535745,300.79940834543811 A 144,144 0 0,1 51.686494715765917,254.352632919565" />
    <path d="M 36.003337933836889,230.8811301029437 A 144,144 0 0,1 29.961347318374749,218.10641426057302" />
    <path d="M 25.200591654561919,204.80099352464259 A 144,144 0 0,1 19.693399359203653,177.1144682074567" />
    <path d="M 19,163.00000000000003 A 144,144 0 0,1 21.766919621934818,134.90699362967752" />
    <path d="M 36.003337933836875,95.118869897056356 A 144,144 0 0,1 71.647367080434989,51.686494715765932" />
    <path d="M 95.1188698970563,36.0033379338369 A 144,144 0 0,1 134.90699362967746,21.766919621934818" />
    <path d="M 178.68274245272968,3.7704437324484843 A 160,160 0 1,1 163,3" />
  </g>
  <g fill="none" stroke="#000000" stroke-width="2" stroke-linecap="butt">
    <line x1="163" y1="19" x2="163" y2="35" />
    <line x1="163" y1="83" x2="163" y2="99" />
    <line x1="178.68274245272968" y1="3.7704437324484843" x2="177.11446820745672" y2="19.693399359203653" />
    <line x1="191.09300637032246" y1="21.766919621934818" x2="184.85011606580636" y2="53.152048594838192" />
    <line x1="181.72867091354831" y1="68.844613081289879" x2="178.60722576129027" y2="84.537177567741566" />
    <line x1="209.44554836071399" y1="9.8895462828465952" x2="204.80099352464259" y2="25.200591654561919" />
    <line x1="218.10641426057293" y1="29.96134731837472" x2="211.9834793427315" y2="44.7434198385553" />
    <line x1="205.86054442489007" y1="59.525492358735889" x2="199.7376095070486" y2="74.30756487891648" />
    <line x1="187.49173967136574" y1="103.87170991927765" x2="181.3688047535243" y2="118.65378243945824" />
    <line x1="243.0021135548227" y1="43.268375828433491" x2="216.33474236988181" y2="83.178917218955661" />
    <line x1="276.13708498984761" y1="49.862915010152392" x2="264.82337649086287" y2="61.176623509137144" />
    <line x1="219.5685424949238" y1="106.4314575050762" x2="208.25483399593904" y2="117.74516600406096" />
    <line x1="196.94112549695427" y1="129.05887450304573" x2="185.62741699796953" y2="140.37258300203047" />
    <line x1="296.03513796840724" y1="74.108762716863637" x2="269.4281103747258" y2="91.8870101734909" />
    <line x1="256.12459657788509" y1="100.77613390180454" x2="229.51756898420362" y2="118.55438135843181" />
    <line x1="281.25658016144473" y1="114.0165206572685" x2="266.4745076412641" y2="120.13945557510994" />
    <line x1="251.69243512108352" y1="126.26239049295137" x2="207.34621756054176" y2="144.6311952464757" />
    <line x1="304.23308037806521" y1="134.90699362967752" x2="257.15538691871012" y2="144.27132908645169" />
    <line x1="322.22955626755152" y1="147.31725754727029" x2="306.30660064079632" y2="148.88553179254325" />
    <line x1="307" y1="163" x2="275" y2="163" />
    <line x1="243" y1="163" x2="227" y2="163" />
    <line x1="322.22955626755152" y1="178.68274245272971" x2="306.30660064079632" y2="177.11446820745672" />
    <line x1="304.23308037806521" y1="191.09300637032246" x2="288.5405158916135" y2="187.97156121806441" />
    <line x1="272.84795140516178" y1="184.85011606580636" x2="241.46282243225843" y2="178.60722576129027" />
    <line x1="281.25658016144473" y1="211.98347934273147" x2="251.69243512108352" y2="199.7376095070486" />
    <line x1="236.91036260090294" y1="193.61467458920717" x2="207.34621756054176" y2="181.3688047535243" />
    <line x1="256.12459657788509" y1="225.2238660981954" x2="229.51756898420365" y2="207.44561864156816" />
    <line x1="286.6816725380379" y1="264.50292546618323" x2="274.31350528423411" y2="254.35263291956494" />
    <line x1="264.82337649086287" y1="264.82337649086287" x2="242.19595949289334" y2="242.19595949289331" />
    <line x1="230.88225099390857" y1="230.88225099390854" x2="219.5685424949238" y2="219.5685424949238" />
    <line x1="243.0021135548227" y1="282.73162417156652" x2="234.11298982650908" y2="269.4281103747258" />
    <line x1="224.2293491784144" y1="310.82072520180589" x2="218.10641426057293" y2="296.03865268162531" />
    <line x1="205.86054442489007" y1="266.4745076412641" x2="199.73760950704863" y2="251.69243512108352" />
    <line x1="193.6146745892072" y1="236.91036260090294" x2="187.49173967136576" y2="222.12829008072237" />
    <line x1="187.97156121806447" y1="288.5405158916135" x2="184.85011606580639" y2="272.84795140516178" />
    <line x1="163" y1="211" x2="163" y2="195" />
    <line x1="147.31725754727032" y1="322.22955626755152" x2="148.88553179254328" y2="306.30660064079632" />
    <line x1="131.78554847741947" y1="319.92564486451687" x2="138.02843878193556" y2="288.5405158916135" />
    <line x1="141.14988393419361" y1="272.84795140516178" x2="144.27132908645169" y2="257.15538691871012" />
    <line x1="126.2623904929514" y1="251.69243512108352" x2="132.38532541079283" y2="236.91036260090294" />
    <line x1="138.50826032863427" y1="222.12829008072237" x2="144.6311952464757" y2="207.34621756054176" />
    <line x1="91.88701017349095" y1="269.4281103747258" x2="109.66525763011822" y2="242.82108278104437" />
    <line x1="61.176623509137158" y1="264.82337649086287" x2="72.490332008121925" y2="253.5096679918781" />
    <line x1="95.117749006091444" y1="230.88225099390857" x2="117.74516600406096" y2="208.25483399593907" />
    <line x1="129.05887450304573" y1="196.94112549695427" x2="140.37258300203047" y2="185.62741699796953" />
    <line x1="39.318327461962127" y1="264.50292546618334" x2="51.686494715765917" y2="254.352632919565" />
    <line x1="43.268375828433491" y1="243.0021135548227" x2="83.178917218955661" y2="216.33474236988181" />
    <line x1="21.89259770426321" y1="238.42347789215967" x2="36.003337933836889" y2="230.8811301029437" />
    <line x1="29.961347318374749" y1="218.10641426057302" x2="89.089637399097086" y2="193.61467458920723" />
    <line x1="68.844613081289893" y1="181.72867091354834" x2="84.53717756774158" y2="178.60722576129029" />
    <line x1="3.7704437324484843" y1="178.68274245272968" x2="19.693399359203653" y2="177.1144682074567" />
    <line x1="35" y1="163.00000000000003" x2="51" y2="163.00000000000003" />
    <line x1="99" y1="163" x2="115" y2="163" />
    <line x1="21.766919621934818" y1="134.90699362967752" x2="37.459484108386505" y2="138.02843878193556" />
    <line x1="53.152048594838192" y1="141.14988393419364" x2="68.844613081289879" y2="144.27132908645169" />
    <line x1="9.8895462828465668" y1="116.55445163928607" x2="25.200591654561919" y2="121.19900647535746" />
    <line x1="15.179274798194143" y1="101.77065082158561" x2="44.743419838555312" y2="114.01652065726847" />
    <line x1="59.5254923587359" y1="120.13945557510992" x2="89.089637399097072" y2="132.3853254107928" />
    <line x1="83.178917218955633" y1="109.66525763011822" x2="96.482431015796365" y2="118.55438135843185" />
    <line x1="61.17662350913713" y1="61.176623509137187" x2="83.804040507106663" y2="83.804040507106691" />
    <line x1="106.43145750507618" y1="106.43145750507621" x2="117.74516600406095" y2="117.74516600406096" />
    <line x1="74.108762716863652" y1="29.964862031592759" x2="91.887010173490921" y2="56.57188962527421" />
    <line x1="134.90699362967746" y1="21.766919621934846" x2="141.14988393419358" y2="53.152048594838206" />
    <line x1="147.31725754727032" y1="3.7704437324484843" x2="148.88553179254328" y2="19.693399359203653" />
  </g>
</svg>
