<?xml version="1.0" standalone="no"?>
<!DOCTYPE svg PUBLIC "-//W3C//DTD SVG 1.1//EN" "http://www.w3.org/Graphics/SVG/1.1/DTD/svg11.dtd">
<svg width="431" height="501.09858177226778" version="1.1" xmlns="http://www.w3.org/2000/svg">
  <title>20 by 20 sigma maze</title>
  <desc>20 by 20 sigma maze generated by The Maze Generator Website (http://www.mazegenerator.net/).</desc>
  <g fill="none" stroke="#000000" stroke-width="2" stroke-linecap="round" stroke-linejoin="round">
    <polyline points="9,38.373066958946431 2,26.248711305964292 9,14.124355652982152 23,14.124355652982152 30,2.0000000000000107 44,2.0000000000000107 51,14.124355652982152 65,14.124355652982152 72,2.0000000000000107 86,2.0000000000000107 93,14.124355652982152 107,14.124355652982152 114,2.0000000000000107 128,2.0000000000000107 135,14.124355652982152 149,14.124355652982152 156,2.0000000000000107 170,2.0000000000000107 177,14.124355652982152 170,26.248711305964292" />
    <polyline points="177,14.124355652982152 191,14.124355652982152 198,2.0000000000000107" />
    <polyline points="212,2.0000000000000107 219,14.124355652982152 212,26.248711305964292" />
    <polyline points="219,14.124355652982152 233,14.124355652982152 240,2.0000000000000107 254,2.0000000000000107 261,14.124355652982152 254,26.248711305964292" />
    <polyline points="261,14.124355652982152 275,14.124355652982152 282,26.248711305964292" />
    <polyline points="275,14.124355652982152 282,2.0000000000000107 296,2.0000000000000107 303,14.124355652982152 317,14.124355652982152 324,26.248711305964292" />
    <polyline points="317,14.124355652982152 324,2.0000000000000107 338,2.0000000000000107 345,14.124355652982152 338,26.248711305964292" />
    <polyline points="345,14.124355652982152 359,14.124355652982152 366,26.248711305964292" />
    <polyline points="359,14.124355652982152 366,2.0000000000000107 380,2.0000000000000107 387,14.124355652982152 380,26.248711305964292" />
    <polyline points="387,14.124355652982152 401,14.124355652982152 408,2.0000000000000107 422,2.0000000000000107 429,14.124355652982152 422,26.248711305964292" />
    <polyline points="9,62.621778264910709 2,50.49742261192857 9,38.373066958946431 23,38.373066958946431" />
    <polyline points="30,26.248711305964292 44,26.248711305964292 51,38.373066958946431 44,50.49742261192857" />
    <polyline points="51,38.373066958946431 65,38.373066958946431 72,26.248711305964292 86,26.248711305964292 93,38.373066958946431 86,50.49742261192857" />
    <polyline points="93,38.373066958946431 107,38.373066958946431 114,26.248711305964292 128,26.248711305964292 135,38.373066958946431 149,38.373066958946431 156,50.49742261192857" />
    <line x1="149" y1="38.373066958946431" x2="156" y2="26.248711305964292" />
    <polyline points="170,26.248711305964292 177,38.373066958946431 170,50.49742261192857" />
    <polyline points="198,50.49742261192857 191,38.373066958946431 198,26.248711305964292" />
    <polyline points="212,50.49742261192857 219,38.373066958946431 233,38.373066958946431 240,50.49742261192857" />
    <line x1="240" y1="26.248711305964292" x2="254" y2="26.248711305964292" />
    <polyline points="254,50.49742261192857 261,38.373066958946431 275,38.373066958946431 282,50.49742261192857" />
    <polyline points="296,26.248711305964292 303,38.373066958946431 296,50.49742261192857" />
    <line x1="317" y1="38.373066958946431" x2="324" y2="50.49742261192857" />
    <line x1="338" y1="50.49742261192857" x2="345" y2="38.373066958946431" />
    <polyline points="366,50.49742261192857 359,38.373066958946431 366,26.248711305964292" />
    <polyline points="387,38.373066958946431 401,38.373066958946431 408,50.49742261192857" />
    <line x1="401" y1="38.373066958946431" x2="408" y2="26.248711305964292" />
    <polyline points="422,26.248711305964292 429,38.373066958946431 422,50.49742261192857" />
    <polyline points="9,86.870489570875 2,74.746133917892848 9,62.621778264910709" />
    <polyline points="23,62.621778264910709 30,50.49742261192857 44,50.49742261192857" />
    <polyline points="44,74.746133917892848 51,62.621778264910709 65,62.621778264910709 72,50.49742261192857" />
    <polyline points="86,50.49742261192857 93,62.621778264910709 86,74.746133917892848" />
    <polyline points="114,74.746133917892848 107,62.621778264910709 114,50.49742261192857 128,50.49742261192857 135,62.621778264910709 128,74.746133917892848" />
    <polyline points="156,74.746133917892848 149,62.621778264910709 156,50.49742261192857 170,50.49742261192857 177,62.621778264910709" />
    <polyline points="198,74.746133917892848 191,62.621778264910709 198,50.49742261192857 212,50.49742261192857" />
    <polyline points="212,74.746133917892848 219,62.621778264910709 233,62.621778264910709 240,50.49742261192857 254,50.49742261192857" />
    <line x1="254" y1="74.746133917892848" x2="261" y2="62.621778264910709" />
    <polyline points="282,74.746133917892848 275,62.621778264910709 282,50.49742261192857" />
    <polyline points="296,50.49742261192857 303,62.621778264910709 296,74.746133917892848" />
    <polyline points="303,62.621778264910709 317,62.621778264910709 324,50.49742261192857 338,50.49742261192857 345,62.621778264910709 359,62.621778264910709 366,74.746133917892848" />
    <line x1="366" y1="50.49742261192857" x2="380" y2="50.49742261192857" />
    <polyline points="387,62.621778264910709 401,62.621778264910709 408,74.746133917892848" />
    <polyline points="408,50.49742261192857 422,50.49742261192857 429,62.621778264910709 422,74.746133917892848" />
    <polyline points="9,111.11920087683929 2,98.994845223857141 9,86.870489570875 23,86.870489570875 30,74.746133917892848 44,74.746133917892848 51,86.870489570875 44,98.994845223857141" />
    <polyline points="72,98.994845223857141 65,86.870489570875 72,74.746133917892848 86,74.746133917892848" />
    <polyline points="86,98.994845223857141 93,86.870489570875 107,86.870489570875 114,74.746133917892848" />
    <polyline points="128,74.746133917892848 135,86.870489570875 128,98.994845223857141" />
    <polyline points="156,98.994845223857141 149,86.870489570875 156,74.746133917892848" />
    <polyline points="170,74.746133917892848 177,86.870489570875 191,86.870489570875 198,98.994845223857141" />
    <line x1="191" y1="86.870489570875" x2="198" y2="74.746133917892848" />
    <polyline points="212,98.994845223857141 219,86.870489570875 233,86.870489570875 240,74.746133917892848 254,74.746133917892848" />
    <polyline points="254,98.994845223857141 261,86.870489570875 275,86.870489570875 282,98.994845223857141" />
    <line x1="275" y1="86.870489570875" x2="282" y2="74.746133917892848" />
    <line x1="296" y1="74.746133917892848" x2="303" y2="86.870489570875" />
    <polyline points="324,98.994845223857141 317,86.870489570875 324,74.746133917892848 338,74.746133917892848" />
    <polyline points="345,86.870489570875 359,86.870489570875 366,98.994845223857141" />
    <polyline points="359,86.870489570875 366,74.746133917892848 380,74.746133917892848" />
    <polyline points="387,86.870489570875 401,86.870489570875 408,98.994845223857141" />
    <line x1="401" y1="86.870489570875" x2="408" y2="74.746133917892848" />
    <polyline points="422,74.746133917892848 429,86.870489570875 422,98.994845223857141" />
    <polyline points="9,135.36791218280357 2,123.24355652982142 9,111.11920087683927" />
    <polyline points="30,123.24355652982142 23,111.11920087683927 30,98.994845223857126" />
    <polyline points="44,123.24355652982142 51,111.11920087683927 65,111.11920087683927 72,123.24355652982142" />
    <line x1="65" y1="111.11920087683927" x2="72" y2="98.994845223857126" />
    <polyline points="86,98.994845223857126 93,111.11920087683927 86,123.24355652982142" />
    <polyline points="93,111.11920087683927 107,111.11920087683927 114,123.24355652982142" />
    <polyline points="114,98.994845223857126 128,98.994845223857126 135,111.11920087683927" />
    <line x1="149" y1="111.11920087683927" x2="156" y2="123.24355652982142" />
    <polyline points="156,98.994845223857126 170,98.994845223857126 177,111.11920087683927 170,123.24355652982142" />
    <polyline points="198,123.24355652982142 191,111.11920087683927 198,98.994845223857126" />
    <polyline points="212,98.994845223857126 219,111.11920087683927 212,123.24355652982142" />
    <polyline points="233,111.11920087683927 240,98.994845223857126 254,98.994845223857126 261,111.11920087683927" />
    <line x1="275" y1="111.11920087683927" x2="282" y2="123.24355652982142" />
    <polyline points="282,98.994845223857126 296,98.994845223857126 303,111.11920087683927 317,111.11920087683927 324,98.994845223857126 338,98.994845223857126 345,111.11920087683927 338,123.24355652982142" />
    <polyline points="359,111.11920087683927 366,98.994845223857126 380,98.994845223857126 387,111.11920087683927 380,123.24355652982142" />
    <polyline points="387,111.11920087683927 401,111.11920087683927 408,98.994845223857126" />
    <polyline points="422,98.994845223857126 429,111.11920087683927 422,123.24355652982142" />
    <polyline points="9,159.61662348876783 2,147.4922678357857 9,135.36791218280357" />
    <polyline points="30,147.4922678357857 23,135.36791218280357 30,123.24355652982142 44,123.24355652982142" />
    <polyline points="51,135.36791218280357 65,135.36791218280357 72,147.4922678357857" />
    <line x1="65" y1="135.36791218280357" x2="72" y2="123.24355652982142" />
    <polyline points="86,123.24355652982142 93,135.36791218280357 107,135.36791218280357 114,147.4922678357857" />
    <polyline points="128,123.24355652982142 135,135.36791218280357 128,147.4922678357857" />
    <polyline points="135,135.36791218280357 149,135.36791218280357 156,123.24355652982142" />
    <polyline points="170,123.24355652982142 177,135.36791218280357 170,147.4922678357857" />
    <line x1="177" y1="135.36791218280357" x2="191" y2="135.36791218280357" />
    <polyline points="212,123.24355652982142 219,135.36791218280357 212,147.4922678357857" />
    <polyline points="219,135.36791218280357 233,135.36791218280357 240,147.4922678357857" />
    <polyline points="233,135.36791218280357 240,123.24355652982142 254,123.24355652982142" />
    <polyline points="254,147.4922678357857 261,135.36791218280357 275,135.36791218280357 282,123.24355652982142" />
    <polyline points="296,123.24355652982142 303,135.36791218280357 296,147.4922678357857" />
    <polyline points="303,135.36791218280357 317,135.36791218280357 324,147.4922678357857" />
    <line x1="317" y1="135.36791218280357" x2="324" y2="123.24355652982142" />
    <polyline points="338,123.24355652982142 345,135.36791218280357 338,147.4922678357857" />
    <polyline points="345,135.36791218280357 359,135.36791218280357 366,123.24355652982142" />
    <polyline points="380,123.24355652982142 387,135.36791218280357 380,147.4922678357857" />
    <polyline points="387,135.36791218280357 401,135.36791218280357 408,147.4922678357857" />
    <polyline points="408,123.24355652982142 422,123.24355652982142 429,135.36791218280357 422,147.4922678357857" />
    <polyline points="9,183.86533479473212 2,171.74097914175 9,159.61662348876786" />
    <polyline points="30,171.74097914175 23,159.61662348876786 30,147.49226783578573 44,147.49226783578573 51,159.61662348876786" />
    <line x1="65" y1="159.61662348876786" x2="72" y2="171.74097914175" />
    <line x1="72" y1="147.49226783578573" x2="86" y2="147.49226783578573" />
    <polyline points="86,171.74097914175 93,159.61662348876786 107,159.61662348876786 114,147.49226783578573 128,147.49226783578573 135,159.61662348876786 149,159.61662348876786 156,147.49226783578573 170,147.49226783578573" />
    <polyline points="170,171.74097914175 177,159.61662348876786 191,159.61662348876786 198,171.74097914175" />
    <polyline points="191,159.61662348876786 198,147.49226783578573 212,147.49226783578573" />
    <line x1="212" y1="171.74097914175" x2="219" y2="159.61662348876786" />
    <polyline points="240,171.74097914175 233,159.61662348876786 240,147.49226783578573 254,147.49226783578573" />
    <polyline points="254,171.74097914175 261,159.61662348876786 275,159.61662348876786 282,147.49226783578573 296,147.49226783578573" />
    <line x1="296" y1="171.74097914175" x2="303" y2="159.61662348876786" />
    <polyline points="324,171.74097914175 317,159.61662348876786 324,147.49226783578573" />
    <polyline points="338,147.49226783578573 345,159.61662348876786 359,159.61662348876786 366,171.74097914175" />
    <polyline points="366,147.49226783578573 380,147.49226783578573 387,159.61662348876786 380,171.74097914175" />
    <polyline points="408,171.74097914175 401,159.61662348876786 408,147.49226783578573" />
    <polyline points="422,147.49226783578573 429,159.61662348876786 422,171.74097914175" />
    <polyline points="9,208.11404610069639 2,195.98969044771425 9,183.86533479473212" />
    <line x1="23" y1="183.86533479473212" x2="30" y2="195.98969044771425" />
    <polyline points="44,171.74097914175 51,183.86533479473212 44,195.98969044771425" />
    <polyline points="51,183.86533479473212 65,183.86533479473212 72,195.98969044771425" />
    <line x1="65" y1="183.86533479473212" x2="72" y2="171.74097914175" />
    <polyline points="86,171.74097914175 93,183.86533479473212 86,195.98969044771425" />
    <line x1="93" y1="183.86533479473212" x2="107" y2="183.86533479473212" />
    <polyline points="114,171.74097914175 128,171.74097914175 135,183.86533479473212 128,195.98969044771425" />
    <polyline points="135,183.86533479473212 149,183.86533479473212 156,171.74097914175 170,171.74097914175" />
    <line x1="170" y1="195.98969044771425" x2="177" y2="183.86533479473212" />
    <line x1="191" y1="183.86533479473212" x2="198" y2="171.74097914175" />
    <polyline points="212,171.74097914175 219,183.86533479473212 212,195.98969044771425" />
    <line x1="233" y1="183.86533479473212" x2="240" y2="171.74097914175" />
    <polyline points="254,171.74097914175 261,183.86533479473212 254,195.98969044771425" />
    <polyline points="282,195.98969044771425 275,183.86533479473212 282,171.74097914175 296,171.74097914175" />
    <polyline points="296,195.98969044771425 303,183.86533479473212 317,183.86533479473212 324,171.74097914175 338,171.74097914175 345,183.86533479473212 359,183.86533479473212 366,171.74097914175" />
    <polyline points="380,171.74097914175 387,183.86533479473212 380,195.98969044771425" />
    <line x1="387" y1="183.86533479473212" x2="401" y2="183.86533479473212" />
    <polyline points="422,171.74097914175 429,183.86533479473212 422,195.98969044771425" />
    <polyline points="9,232.36275740666068 2,220.23840175367855 9,208.11404610069641 23,208.11404610069641 30,220.23840175367855" />
    <polyline points="30,195.98969044771428 44,195.98969044771428 51,208.11404610069641 44,220.23840175367855" />
    <line x1="65" y1="208.11404610069641" x2="72" y2="220.23840175367855" />
    <polyline points="86,195.98969044771428 93,208.11404610069641 86,220.23840175367855" />
    <polyline points="93,208.11404610069641 107,208.11404610069641 114,220.23840175367855" />
    <polyline points="114,195.98969044771428 128,195.98969044771428 135,208.11404610069641 128,220.23840175367855" />
    <line x1="135" y1="208.11404610069641" x2="149" y2="208.11404610069641" />
    <polyline points="156,195.98969044771428 170,195.98969044771428 177,208.11404610069641 170,220.23840175367855" />
    <polyline points="177,208.11404610069641 191,208.11404610069641 198,195.98969044771428 212,195.98969044771428 219,208.11404610069641 212,220.23840175367855" />
    <line x1="233" y1="208.11404610069641" x2="240" y2="220.23840175367855" />
    <polyline points="240,195.98969044771428 254,195.98969044771428 261,208.11404610069641 275,208.11404610069641 282,220.23840175367855" />
    <polyline points="282,195.98969044771428 296,195.98969044771428 303,208.11404610069641 296,220.23840175367855" />
    <polyline points="303,208.11404610069641 317,208.11404610069641 324,220.23840175367855" />
    <polyline points="324,195.98969044771428 338,195.98969044771428 345,208.11404610069641 338,220.23840175367855" />
    <polyline points="345,208.11404610069641 359,208.11404610069641 366,195.98969044771428 380,195.98969044771428 387,208.11404610069641" />
    <polyline points="401,208.11404610069641 408,195.98969044771428 422,195.98969044771428 429,208.11404610069641 422,220.23840175367855" />
    <polyline points="9,256.61146871262497 2,244.48711305964284 9,232.36275740666071" />
    <line x1="23" y1="232.36275740666071" x2="30" y2="244.48711305964284" />
    <polyline points="44,220.23840175367857 51,232.36275740666071 44,244.48711305964284" />
    <polyline points="72,244.48711305964284 65,232.36275740666071 72,220.23840175367857 86,220.23840175367857" />
    <line x1="86" y1="244.48711305964284" x2="93" y2="232.36275740666071" />
    <polyline points="114,244.48711305964284 107,232.36275740666071 114,220.23840175367857" />
    <polyline points="128,220.23840175367857 135,232.36275740666071 149,232.36275740666071 156,244.48711305964284" />
    <polyline points="156,220.23840175367857 170,220.23840175367857 177,232.36275740666071 170,244.48711305964284" />
    <line x1="191" y1="232.36275740666071" x2="198" y2="244.48711305964284" />
    <line x1="198" y1="220.23840175367857" x2="212" y2="220.23840175367857" />
    <polyline points="212,244.48711305964284 219,232.36275740666071 233,232.36275740666071 240,220.23840175367857 254,220.23840175367857 261,232.36275740666071 254,244.48711305964284" />
    <polyline points="282,244.48711305964284 275,232.36275740666071 282,220.23840175367857" />
    <line x1="296" y1="244.48711305964284" x2="303" y2="232.36275740666071" />
    <polyline points="324,244.48711305964284 317,232.36275740666071 324,220.23840175367857" />
    <polyline points="338,220.23840175367857 345,232.36275740666071 359,232.36275740666071 366,244.48711305964284" />
    <polyline points="366,220.23840175367857 380,220.23840175367857 387,232.36275740666071 380,244.48711305964284" />
    <polyline points="387,232.36275740666071 401,232.36275740666071 408,244.48711305964284" />
    <line x1="401" y1="232.36275740666071" x2="408" y2="220.23840175367857" />
    <polyline points="422,220.23840175367857 429,232.36275740666071 422,244.48711305964284" />
    <polyline points="9,280.86018001858923 2,268.73582436560707 9,256.61146871262491 23,256.61146871262491 30,268.73582436560707" />
    <polyline points="30,244.48711305964278 44,244.48711305964278 51,256.61146871262491 65,256.61146871262491 72,268.73582436560707" />
    <polyline points="86,244.48711305964278 93,256.61146871262491 86,268.73582436560707" />
    <polyline points="93,256.61146871262491 107,256.61146871262491 114,268.73582436560707" />
    <polyline points="114,244.48711305964278 128,244.48711305964278 135,256.61146871262491 128,268.73582436560707" />
    <polyline points="156,268.73582436560707 149,256.61146871262491 156,244.48711305964278 170,244.48711305964278 177,256.61146871262491" />
    <polyline points="198,268.73582436560707 191,256.61146871262491 198,244.48711305964278 212,244.48711305964278" />
    <polyline points="219,256.61146871262491 233,256.61146871262491 240,244.48711305964278 254,244.48711305964278" />
    <polyline points="254,268.73582436560707 261,256.61146871262491 275,256.61146871262491 282,268.73582436560707" />
    <polyline points="275,256.61146871262491 282,244.48711305964278 296,244.48711305964278" />
    <polyline points="303,256.61146871262491 317,256.61146871262491 324,268.73582436560707" />
    <polyline points="317,256.61146871262491 324,244.48711305964278 338,244.48711305964278 345,256.61146871262491 359,256.61146871262491 366,268.73582436560707" />
    <line x1="366" y1="244.48711305964278" x2="380" y2="244.48711305964278" />
    <polyline points="380,268.73582436560707 387,256.61146871262491 401,256.61146871262491 408,268.73582436560707" />
    <polyline points="408,244.48711305964278 422,244.48711305964278 429,256.61146871262491 422,268.73582436560707" />
    <polyline points="9,305.10889132455355 2,292.98453567157139 9,280.86018001858923" />
    <line x1="23" y1="280.86018001858923" x2="30" y2="292.98453567157139" />
    <polyline points="30,268.73582436560707 44,268.73582436560707 51,280.86018001858923 65,280.86018001858923 72,292.98453567157139" />
    <polyline points="65,280.86018001858923 72,268.73582436560707 86,268.73582436560707" />
    <line x1="86" y1="292.98453567157139" x2="93" y2="280.86018001858923" />
    <line x1="107" y1="280.86018001858923" x2="114" y2="268.73582436560707" />
    <polyline points="128,268.73582436560707 135,280.86018001858923 128,292.98453567157139" />
    <polyline points="156,292.98453567157139 149,280.86018001858923 156,268.73582436560707" />
    <polyline points="170,268.73582436560707 177,280.86018001858923 170,292.98453567157139" />
    <polyline points="177,280.86018001858923 191,280.86018001858923 198,292.98453567157139" />
    <line x1="191" y1="280.86018001858923" x2="198" y2="268.73582436560707" />
    <polyline points="212,268.73582436560707 219,280.86018001858923 212,292.98453567157139" />
    <polyline points="219,280.86018001858923 233,280.86018001858923 240,292.98453567157139" />
    <polyline points="233,280.86018001858923 240,268.73582436560707 254,268.73582436560707" />
    <line x1="254" y1="292.98453567157139" x2="261" y2="280.86018001858923" />
    <polyline points="282,292.98453567157139 275,280.86018001858923 282,268.73582436560707" />
    <polyline points="296,268.73582436560707 303,280.86018001858923 296,292.98453567157139" />
    <polyline points="303,280.86018001858923 317,280.86018001858923 324,292.98453567157139" />
    <polyline points="338,268.73582436560707 345,280.86018001858923 338,292.98453567157139" />
    <polyline points="345,280.86018001858923 359,280.86018001858923 366,292.98453567157139" />
    <polyline points="366,268.73582436560707 380,268.73582436560707 387,280.86018001858923 380,292.98453567157139" />
    <polyline points="408,292.98453567157139 401,280.86018001858923 408,268.73582436560707" />
    <polyline points="422,268.73582436560707 429,280.86018001858923 422,292.98453567157139" />
    <polyline points="9,329.35760263051787 2,317.23324697753571 9,305.10889132455355" />
    <polyline points="23,305.10889132455355 30,292.98453567157139 44,292.98453567157139 51,305.10889132455355 65,305.10889132455355 72,317.23324697753571" />
    <polyline points="86,292.98453567157139 93,305.10889132455355 86,317.23324697753571" />
    <polyline points="93,305.10889132455355 107,305.10889132455355 114,317.23324697753571" />
    <polyline points="107,305.10889132455355 114,292.98453567157139 128,292.98453567157139 135,305.10889132455355 149,305.10889132455355" />
    <polyline points="156,292.98453567157139 170,292.98453567157139 177,305.10889132455355" />
    <line x1="191" y1="305.10889132455355" x2="198" y2="317.23324697753571" />
    <line x1="198" y1="292.98453567157139" x2="212" y2="292.98453567157139" />
    <polyline points="212,317.23324697753571 219,305.10889132455355 233,305.10889132455355 240,317.23324697753571" />
    <polyline points="254,292.98453567157139 261,305.10889132455355 254,317.23324697753571" />
    <polyline points="282,317.23324697753571 275,305.10889132455355 282,292.98453567157139" />
    <line x1="296" y1="317.23324697753571" x2="303" y2="305.10889132455355" />
    <polyline points="317,305.10889132455355 324,292.98453567157139 338,292.98453567157139" />
    <polyline points="338,317.23324697753571 345,305.10889132455355 359,305.10889132455355 366,317.23324697753571" />
    <line x1="359" y1="305.10889132455355" x2="366" y2="292.98453567157139" />
    <polyline points="380,317.23324697753571 387,305.10889132455355 401,305.10889132455355 408,292.98453567157139" />
    <polyline points="422,292.98453567157139 429,305.10889132455355 422,317.23324697753571" />
    <polyline points="9,353.60631393648208 2,341.48195828349992 9,329.35760263051776 23,329.35760263051776 30,317.2332469775356 44,317.2332469775356 51,329.35760263051776" />
    <polyline points="72,341.48195828349992 65,329.35760263051776 72,317.2332469775356 86,317.2332469775356" />
    <line x1="86" y1="341.48195828349992" x2="93" y2="329.35760263051776" />
    <polyline points="114,341.48195828349992 107,329.35760263051776 114,317.2332469775356" />
    <polyline points="128,317.2332469775356 135,329.35760263051776 149,329.35760263051776 156,341.48195828349992" />
    <line x1="149" y1="329.35760263051776" x2="156" y2="317.2332469775356" />
    <polyline points="170,317.2332469775356 177,329.35760263051776 191,329.35760263051776 198,341.48195828349992" />
    <polyline points="191,329.35760263051776 198,317.2332469775356 212,317.2332469775356" />
    <polyline points="219,329.35760263051776 233,329.35760263051776 240,341.48195828349992" />
    <polyline points="233,329.35760263051776 240,317.2332469775356 254,317.2332469775356 261,329.35760263051776" />
    <polyline points="282,341.48195828349992 275,329.35760263051776 282,317.2332469775356 296,317.2332469775356 303,329.35760263051776 317,329.35760263051776 324,341.48195828349992" />
    <polyline points="324,317.2332469775356 338,317.2332469775356 345,329.35760263051776 338,341.48195828349992" />
    <line x1="359" y1="329.35760263051776" x2="366" y2="341.48195828349992" />
    <line x1="366" y1="317.2332469775356" x2="380" y2="317.2332469775356" />
    <polyline points="380,341.48195828349992 387,329.35760263051776 401,329.35760263051776 408,317.2332469775356" />
    <polyline points="422,317.2332469775356 429,329.35760263051776 422,341.48195828349992" />
    <polyline points="9,377.8550252424464 2,365.73066958946424 9,353.60631393648208 23,353.60631393648208 30,365.73066958946424" />
    <polyline points="30,341.48195828349992 44,341.48195828349992 51,353.60631393648208 44,365.73066958946424" />
    <polyline points="51,353.60631393648208 65,353.60631393648208 72,365.73066958946424" />
    <polyline points="86,341.48195828349992 93,353.60631393648208 86,365.73066958946424" />
    <polyline points="93,353.60631393648208 107,353.60631393648208 114,341.48195828349992 128,341.48195828349992 135,353.60631393648208 149,353.60631393648208" />
    <polyline points="156,341.48195828349992 170,341.48195828349992 177,353.60631393648208 170,365.73066958946424" />
    <polyline points="177,353.60631393648208 191,353.60631393648208 198,365.73066958946424" />
    <line x1="198" y1="341.48195828349992" x2="212" y2="341.48195828349992" />
    <polyline points="212,365.73066958946424 219,353.60631393648208 233,353.60631393648208 240,341.48195828349992" />
    <polyline points="254,341.48195828349992 261,353.60631393648208 254,365.73066958946424" />
    <polyline points="261,353.60631393648208 275,353.60631393648208 282,341.48195828349992" />
    <polyline points="296,341.48195828349992 303,353.60631393648208 296,365.73066958946424" />
    <line x1="317" y1="353.60631393648208" x2="324" y2="341.48195828349992" />
    <polyline points="338,341.48195828349992 345,353.60631393648208 338,365.73066958946424" />
    <polyline points="366,365.73066958946424 359,353.60631393648208 366,341.48195828349992 380,341.48195828349992" />
    <polyline points="380,365.73066958946424 387,353.60631393648208 401,353.60631393648208 408,341.48195828349992" />
    <polyline points="422,341.48195828349992 429,353.60631393648208 422,365.73066958946424" />
    <polyline points="9,402.10373654841072 2,389.97938089542856 9,377.8550252424464" />
    <polyline points="30,389.97938089542856 23,377.8550252424464 30,365.73066958946424" />
    <polyline points="51,377.8550252424464 65,377.8550252424464 72,389.97938089542856" />
    <polyline points="65,377.8550252424464 72,365.73066958946424 86,365.73066958946424" />
    <polyline points="93,377.8550252424464 107,377.8550252424464 114,389.97938089542856" />
    <polyline points="114,365.73066958946424 128,365.73066958946424 135,377.8550252424464 149,377.8550252424464 156,365.73066958946424 170,365.73066958946424" />
    <polyline points="170,389.97938089542856 177,377.8550252424464 191,377.8550252424464 198,365.73066958946424 212,365.73066958946424" />
    <polyline points="212,389.97938089542856 219,377.8550252424464 233,377.8550252424464 240,365.73066958946424 254,365.73066958946424" />
    <line x1="254" y1="389.97938089542856" x2="261" y2="377.8550252424464" />
    <polyline points="275,377.8550252424464 282,365.73066958946424 296,365.73066958946424 303,377.8550252424464 296,389.97938089542856" />
    <polyline points="303,377.8550252424464 317,377.8550252424464 324,365.73066958946424 338,365.73066958946424" />
    <polyline points="338,389.97938089542856 345,377.8550252424464 359,377.8550252424464 366,365.73066958946424" />
    <polyline points="380,365.73066958946424 387,377.8550252424464 401,377.8550252424464 408,389.97938089542856" />
    <polyline points="408,365.73066958946424 422,365.73066958946424 429,377.8550252424464 422,389.97938089542856" />
    <polyline points="9,426.35244785437493 2,414.22809220139277 9,402.10373654841061" />
    <polyline points="30,414.22809220139277 23,402.10373654841061 30,389.97938089542845 44,389.97938089542845" />
    <polyline points="51,402.10373654841061 65,402.10373654841061 72,389.97938089542845 86,389.97938089542845" />
    <polyline points="86,414.22809220139277 93,402.10373654841061 107,402.10373654841061 114,414.22809220139277" />
    <polyline points="107,402.10373654841061 114,389.97938089542845 128,389.97938089542845 135,402.10373654841061 149,402.10373654841061 156,389.97938089542845" />
    <polyline points="170,389.97938089542845 177,402.10373654841061 170,414.22809220139277" />
    <line x1="177" y1="402.10373654841061" x2="191" y2="402.10373654841061" />
    <polyline points="198,389.97938089542845 212,389.97938089542845 219,402.10373654841061 212,414.22809220139277" />
    <polyline points="219,402.10373654841061 233,402.10373654841061 240,389.97938089542845" />
    <polyline points="254,389.97938089542845 261,402.10373654841061 254,414.22809220139277" />
    <polyline points="261,402.10373654841061 275,402.10373654841061 282,389.97938089542845" />
    <polyline points="296,389.97938089542845 303,402.10373654841061 296,414.22809220139277" />
    <polyline points="324,414.22809220139277 317,402.10373654841061 324,389.97938089542845 338,389.97938089542845 345,402.10373654841061 359,402.10373654841061 366,389.97938089542845 380,389.97938089542845 387,402.10373654841061 401,402.10373654841061 408,414.22809220139277" />
    <line x1="401" y1="402.10373654841061" x2="408" y2="389.97938089542845" />
    <polyline points="422,389.97938089542845 429,402.10373654841061 422,414.22809220139277" />
    <polyline points="9,450.60115916033925 2,438.47680350735709 9,426.35244785437493 23,426.35244785437493 30,438.47680350735709" />
    <polyline points="30,414.22809220139277 44,414.22809220139277 51,426.35244785437493 44,438.47680350735709" />
    <polyline points="51,426.35244785437493 65,426.35244785437493 72,414.22809220139277 86,414.22809220139277" />
    <polyline points="93,426.35244785437493 107,426.35244785437493 114,438.47680350735709" />
    <line x1="107" y1="426.35244785437493" x2="114" y2="414.22809220139277" />
    <polyline points="128,414.22809220139277 135,426.35244785437493 128,438.47680350735709" />
    <polyline points="135,426.35244785437493 149,426.35244785437493 156,414.22809220139277 170,414.22809220139277 177,426.35244785437493 170,438.47680350735709" />
    <polyline points="198,438.47680350735709 191,426.35244785437493 198,414.22809220139277 212,414.22809220139277 219,426.35244785437493" />
    <polyline points="240,438.47680350735709 233,426.35244785437493 240,414.22809220139277 254,414.22809220139277" />
    <polyline points="254,438.47680350735709 261,426.35244785437493 275,426.35244785437493 282,414.22809220139277 296,414.22809220139277 303,426.35244785437493 317,426.35244785437493 324,438.47680350735709" />
    <polyline points="338,414.22809220139277 345,426.35244785437493 338,438.47680350735709" />
    <polyline points="345,426.35244785437493 359,426.35244785437493 366,414.22809220139277 380,414.22809220139277" />
    <polyline points="380,438.47680350735709 387,426.35244785437493 401,426.35244785437493 408,438.47680350735709" />
    <line x1="401" y1="426.35244785437493" x2="408" y2="414.22809220139277" />
    <polyline points="422,414.22809220139277 429,426.35244785437493 422,438.47680350735709" />
    <polyline points="9,474.84987046630357 2,462.72551481332141 9,450.60115916033925 23,450.60115916033925" />
    <polyline points="44,462.72551481332141 51,450.60115916033925 65,450.60115916033925 72,438.47680350735709 86,438.47680350735709" />
    <polyline points="86,462.72551481332141 93,450.60115916033925 107,450.60115916033925 114,438.47680350735709" />
    <polyline points="128,438.47680350735709 135,450.60115916033925 128,462.72551481332141" />
    <line x1="149" y1="450.60115916033925" x2="156" y2="462.72551481332141" />
    <polyline points="156,438.47680350735709 170,438.47680350735709 177,450.60115916033925 191,450.60115916033925 198,462.72551481332141" />
    <line x1="198" y1="438.47680350735709" x2="212" y2="438.47680350735709" />
    <polyline points="212,462.72551481332141 219,450.60115916033925 233,450.60115916033925 240,438.47680350735709 254,438.47680350735709 261,450.60115916033925 275,450.60115916033925 282,462.72551481332141" />
    <polyline points="282,438.47680350735709 296,438.47680350735709 303,450.60115916033925 296,462.72551481332141" />
    <polyline points="324,462.72551481332141 317,450.60115916033925 324,438.47680350735709 338,438.47680350735709" />
    <polyline points="345,450.60115916033925 359,450.60115916033925 366,462.72551481332141" />
    <polyline points="359,450.60115916033925 366,438.47680350735709 380,438.47680350735709" />
    <polyline points="387,450.60115916033925 401,450.60115916033925 408,462.72551481332141" />
    <line x1="401" y1="450.60115916033925" x2="408" y2="438.47680350735709" />
    <polyline points="422,438.47680350735709 429,450.60115916033925 422,462.72551481332141" />
    <polyline points="9,499.09858177226778 2,486.97422611928562 9,474.84987046630346" />
    <polyline points="23,474.84987046630346 30,462.7255148133213 44,462.7255148133213 51,474.84987046630346 65,474.84987046630346 72,486.97422611928562" />
    <polyline points="72,462.7255148133213 86,462.7255148133213 93,474.84987046630346 107,474.84987046630346" />
    <line x1="114" y1="462.7255148133213" x2="128" y2="462.7255148133213" />
    <polyline points="128,486.97422611928562 135,474.84987046630346 149,474.84987046630346 156,462.7255148133213 170,462.7255148133213 177,474.84987046630346 191,474.84987046630346" />
    <polyline points="198,462.7255148133213 212,462.7255148133213 219,474.84987046630346 212,486.97422611928562" />
    <polyline points="240,486.97422611928562 233,474.84987046630346 240,462.7255148133213 254,462.7255148133213" />
    <polyline points="261,474.84987046630346 275,474.84987046630346 282,462.7255148133213" />
    <polyline points="296,462.7255148133213 303,474.84987046630346 296,486.97422611928562" />
    <line x1="303" y1="474.84987046630346" x2="317" y2="474.84987046630346" />
    <line x1="324" y1="462.7255148133213" x2="338" y2="462.7255148133213" />
    <polyline points="338,486.97422611928562 345,474.84987046630346 359,474.84987046630346 366,462.7255148133213" />
    <polyline points="380,462.7255148133213 387,474.84987046630346 380,486.97422611928562" />
    <line x1="387" y1="474.84987046630346" x2="401" y2="474.84987046630346" />
    <polyline points="422,462.7255148133213 429,474.84987046630346 422,486.97422611928562" />
    <polyline points="30,486.97422611928562 23,499.09858177226778 9,499.09858177226778" />
    <line x1="44" y1="486.97422611928562" x2="30" y2="486.97422611928562" />
    <polyline points="72,486.97422611928562 65,499.09858177226778 51,499.09858177226778 44,486.97422611928562" />
    <line x1="86" y1="486.97422611928562" x2="72" y2="486.97422611928562" />
    <polyline points="114,486.97422611928562 107,499.09858177226778 93,499.09858177226778 86,486.97422611928562" />
    <line x1="128" y1="486.97422611928562" x2="114" y2="486.97422611928562" />
    <polyline points="156,486.97422611928562 149,499.09858177226778 135,499.09858177226778 128,486.97422611928562" />
    <line x1="170" y1="486.97422611928562" x2="156" y2="486.97422611928562" />
    <polyline points="198,486.97422611928562 191,499.09858177226778 177,499.09858177226778 170,486.97422611928562" />
    <line x1="212" y1="486.97422611928562" x2="198" y2="486.97422611928562" />
    <line x1="240" y1="486.97422611928562" x2="233" y2="499.09858177226778" />
    <line x1="219" y1="499.09858177226778" x2="212" y2="486.97422611928562" />
    <line x1="254" y1="486.97422611928562" x2="240" y2="486.97422611928562" />
    <polyline points="282,486.97422611928562 275,499.09858177226778 261,499.09858177226778 254,486.97422611928562" />
    <line x1="296" y1="486.97422611928562" x2="282" y2="486.97422611928562" />
    <polyline points="324,486.97422611928562 317,499.09858177226778 303,499.09858177226778 296,486.97422611928562" />
    <line x1="338" y1="486.97422611928562" x2="324" y2="486.97422611928562" />
    <polyline points="366,486.97422611928562 359,499.09858177226778 345,499.09858177226778 338,486.97422611928562" />
    <line x1="380" y1="486.97422611928562" x2="366" y2="486.97422611928562" />
    <polyline points="408,486.97422611928562 401,499.09858177226778 387,499.09858177226778 380,486.97422611928562" />
    <line x1="422" y1="486.97422611928562" x2="408" y2="486.97422611928562" />
  </g>
</svg>
