<?xml version="1.0" standalone="no"?>
<!DOCTYPE svg PUBLIC "-//W3C//DTD SVG 1.1//EN" "http://www.w3.org/Graphics/SVG/1.1/DTD/svg11.dtd">
<svg width="235" height="385.051177665153" version="1.1" xmlns="http://www.w3.org/2000/svg">
  <title>20 by 20 delta maze</title>
  <desc>20 by 20 delta maze generated by The Maze Generator Website (http://www.mazegenerator.net/).</desc>
  <g fill="none" stroke="#000000" stroke-width="2" stroke-linecap="round" stroke-linejoin="round">
    <line x1="13" y1="1.9999999999999911" x2="101" y2="1.9999999999999911" />
    <line x1="123" y1="1.9999999999999911" x2="233" y2="1.9999999999999911" />
    <line x1="90" y1="21.052558883257639" x2="112" y2="21.052558883257639" />
    <line x1="156" y1="21.052558883257639" x2="200" y2="21.052558883257639" />
    <line x1="79" y1="40.105117766515292" x2="101" y2="40.105117766515292" />
    <line x1="123" y1="40.105117766515292" x2="167" y2="40.105117766515292" />
    <line x1="112" y1="59.157676649772938" x2="156" y2="59.157676649772938" />
    <line x1="13" y1="78.210235533030584" x2="35" y2="78.210235533030584" />
    <line x1="101" y1="78.210235533030584" x2="123" y2="78.210235533030584" />
    <line x1="167" y1="78.210235533030584" x2="211" y2="78.210235533030584" />
    <line x1="24" y1="97.262794416288244" x2="46" y2="97.262794416288244" />
    <line x1="200" y1="97.262794416288244" x2="222" y2="97.262794416288244" />
    <line x1="13" y1="116.31535329954589" x2="79" y2="116.31535329954589" />
    <line x1="101" y1="116.31535329954589" x2="145" y2="116.31535329954589" />
    <line x1="167" y1="116.31535329954589" x2="189" y2="116.31535329954589" />
    <line x1="24" y1="135.36791218280354" x2="134" y2="135.36791218280354" />
    <line x1="156" y1="135.36791218280354" x2="178" y2="135.36791218280354" />
    <line x1="35" y1="154.4204710660612" x2="57" y2="154.4204710660612" />
    <line x1="123" y1="154.4204710660612" x2="145" y2="154.4204710660612" />
    <line x1="167" y1="154.4204710660612" x2="189" y2="154.4204710660612" />
    <line x1="24" y1="173.47302994931883" x2="68" y2="173.47302994931883" />
    <line x1="134" y1="173.47302994931883" x2="156" y2="173.47302994931883" />
    <line x1="13" y1="192.52558883257649" x2="79" y2="192.52558883257649" />
    <line x1="145" y1="192.52558883257649" x2="167" y2="192.52558883257649" />
    <line x1="46" y1="211.57814771583415" x2="68" y2="211.57814771583415" />
    <line x1="134" y1="211.57814771583415" x2="156" y2="211.57814771583415" />
    <line x1="35" y1="230.63070659909178" x2="57" y2="230.63070659909178" />
    <line x1="46" y1="249.68326548234944" x2="68" y2="249.68326548234944" />
    <line x1="134" y1="249.68326548234944" x2="156" y2="249.68326548234944" />
    <line x1="200" y1="249.68326548234944" x2="222" y2="249.68326548234944" />
    <line x1="35" y1="268.73582436560707" x2="57" y2="268.73582436560707" />
    <line x1="123" y1="268.73582436560707" x2="167" y2="268.73582436560707" />
    <line x1="189" y1="268.73582436560707" x2="211" y2="268.73582436560707" />
    <line x1="112" y1="287.78838324886476" x2="156" y2="287.78838324886476" />
    <line x1="178" y1="287.78838324886476" x2="200" y2="287.78838324886476" />
    <line x1="35" y1="306.84094213212234" x2="57" y2="306.84094213212234" />
    <line x1="79" y1="306.84094213212234" x2="123" y2="306.84094213212234" />
    <line x1="167" y1="306.84094213212234" x2="189" y2="306.84094213212234" />
    <line x1="68" y1="325.89350101538" x2="90" y2="325.89350101538" />
    <line x1="156" y1="325.89350101538" x2="200" y2="325.89350101538" />
    <line x1="101" y1="344.94605989863771" x2="123" y2="344.94605989863771" />
    <line x1="145" y1="344.94605989863771" x2="167" y2="344.94605989863771" />
    <line x1="134" y1="363.99861878189529" x2="156" y2="363.99861878189529" />
    <line x1="178" y1="363.99861878189529" x2="200" y2="363.99861878189529" />
    <line x1="13" y1="383.051177665153" x2="101" y2="383.051177665153" />
    <line x1="123" y1="383.051177665153" x2="233" y2="383.051177665153" />
    <polyline points="13,1.9999999999999911 2,21.052558883257639 13,40.105117766515292 2,59.157676649772938" />
    <line x1="2" y1="59.157676649772945" x2="13" y2="78.2102355330306" />
    <line x1="13" y1="78.210235533030584" x2="2" y2="97.262794416288244" />
    <polyline points="2,97.26279441628823 13,116.31535329954589 2,135.36791218280354 13,154.42047106606117" />
    <line x1="13" y1="154.4204710660612" x2="2" y2="173.47302994931883" />
    <polyline points="2,173.47302994931886 13,192.52558883257649 2,211.57814771583412" />
    <line x1="2" y1="211.57814771583415" x2="13" y2="230.63070659909178" />
    <line x1="13" y1="230.63070659909181" x2="2" y2="249.68326548234944" />
    <polyline points="2,249.68326548234941 13,268.73582436560707 2,287.78838324886476 13,306.84094213212245" />
    <polyline points="13,306.84094213212234 2,325.89350101538 13,344.94605989863771 2,363.9986187818954" />
    <line x1="2" y1="363.99861878189529" x2="13" y2="383.051177665153" />
    <line x1="13" y1="230.63070659909181" x2="24" y2="249.68326548234944" />
    <line x1="13" y1="268.73582436560707" x2="24" y2="287.78838324886476" />
    <polyline points="24,21.052558883257639 35,40.105117766515292 24,59.157676649772938" />
    <line x1="24" y1="59.157676649772945" x2="35" y2="78.2102355330306" />
    <line x1="35" y1="192.52558883257649" x2="24" y2="211.57814771583412" />
    <line x1="24" y1="211.57814771583415" x2="35" y2="230.63070659909178" />
    <polyline points="35,306.84094213212234 24,325.89350101538 35,344.94605989863771 24,363.9986187818954" />
    <line x1="35" y1="268.73582436560707" x2="46" y2="287.78838324886476" />
    <polyline points="46,325.89350101538 35,344.94605989863771 46,363.9986187818954" />
    <polyline points="57,1.9999999999999911 46,21.052558883257639 57,40.105117766515292 46,59.157676649772938" />
    <line x1="57" y1="78.210235533030584" x2="46" y2="97.262794416288244" />
    <line x1="46" y1="287.78838324886476" x2="57" y2="306.84094213212245" />
    <line x1="46" y1="363.99861878189529" x2="57" y2="383.051177665153" />
    <line x1="68" y1="59.157676649772945" x2="57" y2="78.2102355330306" />
    <line x1="68" y1="135.36791218280354" x2="57" y2="154.42047106606117" />
    <line x1="57" y1="154.4204710660612" x2="68" y2="173.47302994931883" />
    <polyline points="68,325.89350101538 57,344.94605989863771 68,363.9986187818954" />
    <line x1="79" y1="1.9999999999999911" x2="68" y2="21.052558883257639" />
    <line x1="79" y1="40.105117766515292" x2="68" y2="59.157676649772938" />
    <line x1="79" y1="78.210235533030584" x2="68" y2="97.262794416288244" />
    <line x1="68" y1="97.26279441628823" x2="79" y2="116.31535329954589" />
    <line x1="79" y1="192.52558883257649" x2="68" y2="211.57814771583412" />
    <line x1="68" y1="211.57814771583415" x2="79" y2="230.63070659909178" />
    <line x1="79" y1="230.63070659909181" x2="68" y2="249.68326548234944" />
    <polyline points="79,268.73582436560707 68,287.78838324886476 79,306.84094213212245" />
    <line x1="90" y1="21.052558883257639" x2="79" y2="40.105117766515292" />
    <line x1="90" y1="59.157676649772945" x2="79" y2="78.2102355330306" />
    <line x1="79" y1="154.4204710660612" x2="90" y2="173.47302994931883" />
    <line x1="79" y1="268.73582436560707" x2="90" y2="287.78838324886476" />
    <line x1="79" y1="344.94605989863771" x2="90" y2="363.9986187818954" />
    <line x1="101" y1="78.210235533030584" x2="90" y2="97.262794416288244" />
    <line x1="90" y1="97.26279441628823" x2="101" y2="116.31535329954589" />
    <line x1="101" y1="154.4204710660612" x2="90" y2="173.47302994931883" />
    <polyline points="90,173.47302994931886 101,192.52558883257649 90,211.57814771583412" />
    <line x1="90" y1="211.57814771583415" x2="101" y2="230.63070659909178" />
    <line x1="101" y1="230.63070659909181" x2="90" y2="249.68326548234944" />
    <polyline points="90,325.89350101538 101,344.94605989863771 90,363.9986187818954" />
    <line x1="90" y1="363.99861878189529" x2="101" y2="383.051177665153" />
    <line x1="101" y1="40.105117766515292" x2="112" y2="59.157676649772938" />
    <line x1="101" y1="230.63070659909181" x2="112" y2="249.68326548234944" />
    <polyline points="112,249.68326548234941 101,268.73582436560707 112,287.78838324886476" />
    <line x1="101" y1="306.84094213212234" x2="112" y2="325.89350101538" />
    <line x1="112" y1="21.052558883257639" x2="123" y2="40.105117766515292" />
    <line x1="123" y1="78.210235533030584" x2="112" y2="97.262794416288244" />
    <line x1="112" y1="135.36791218280354" x2="123" y2="154.42047106606117" />
    <line x1="123" y1="154.4204710660612" x2="112" y2="173.47302994931883" />
    <polyline points="112,173.47302994931886 123,192.52558883257649 112,211.57814771583412" />
    <line x1="112" y1="211.57814771583415" x2="123" y2="230.63070659909178" />
    <line x1="112" y1="363.99861878189529" x2="123" y2="383.051177665153" />
    <line x1="134" y1="97.26279441628823" x2="123" y2="116.31535329954589" />
    <line x1="134" y1="173.47302994931886" x2="123" y2="192.52558883257649" />
    <line x1="123" y1="230.63070659909181" x2="134" y2="249.68326548234944" />
    <line x1="134" y1="249.68326548234941" x2="123" y2="268.73582436560707" />
    <line x1="134" y1="287.78838324886476" x2="123" y2="306.84094213212245" />
    <polyline points="123,306.84094213212234 134,325.89350101538 123,344.94605989863771 134,363.9986187818954" />
    <line x1="134" y1="21.052558883257639" x2="145" y2="40.105117766515292" />
    <line x1="145" y1="78.210235533030584" x2="134" y2="97.262794416288244" />
    <line x1="134" y1="211.57814771583415" x2="145" y2="230.63070659909178" />
    <line x1="145" y1="1.9999999999999911" x2="156" y2="21.052558883257639" />
    <polyline points="145,116.31535329954589 156,135.36791218280354 145,154.42047106606117" />
    <polyline points="145,306.84094213212234 156,325.89350101538 145,344.94605989863771" />
    <line x1="156" y1="59.157676649772945" x2="167" y2="78.2102355330306" />
    <line x1="167" y1="78.210235533030584" x2="156" y2="97.262794416288244" />
    <line x1="167" y1="154.4204710660612" x2="156" y2="173.47302994931883" />
    <line x1="167" y1="192.52558883257649" x2="156" y2="211.57814771583412" />
    <line x1="167" y1="230.63070659909181" x2="156" y2="249.68326548234944" />
    <line x1="156" y1="287.78838324886476" x2="167" y2="306.84094213212245" />
    <line x1="167" y1="40.105117766515292" x2="178" y2="59.157676649772938" />
    <line x1="178" y1="97.26279441628823" x2="167" y2="116.31535329954589" />
    <line x1="178" y1="173.47302994931886" x2="167" y2="192.52558883257649" />
    <line x1="178" y1="211.57814771583415" x2="167" y2="230.63070659909178" />
    <line x1="167" y1="230.63070659909181" x2="178" y2="249.68326548234944" />
    <line x1="167" y1="268.73582436560707" x2="178" y2="287.78838324886476" />
    <line x1="167" y1="344.94605989863771" x2="178" y2="363.9986187818954" />
    <line x1="178" y1="363.99861878189529" x2="167" y2="383.051177665153" />
    <line x1="189" y1="40.105117766515292" x2="178" y2="59.157676649772938" />
    <line x1="189" y1="78.210235533030584" x2="178" y2="97.262794416288244" />
    <polyline points="178,173.47302994931886 189,192.52558883257649 178,211.57814771583412" />
    <polyline points="189,116.31535329954589 200,135.36791218280354 189,154.42047106606117" />
    <line x1="200" y1="211.57814771583415" x2="189" y2="230.63070659909178" />
    <line x1="189" y1="230.63070659909181" x2="200" y2="249.68326548234944" />
    <line x1="200" y1="249.68326548234941" x2="189" y2="268.73582436560707" />
    <line x1="200" y1="325.89350101538" x2="189" y2="344.94605989863771" />
    <polyline points="200,21.052558883257639 211,40.105117766515292 200,59.157676649772938" />
    <line x1="200" y1="97.26279441628823" x2="211" y2="116.31535329954589" />
    <line x1="211" y1="154.4204710660612" x2="200" y2="173.47302994931883" />
    <polyline points="200,173.47302994931886 211,192.52558883257649 200,211.57814771583412" />
    <line x1="200" y1="287.78838324886476" x2="211" y2="306.84094213212245" />
    <line x1="211" y1="306.84094213212234" x2="200" y2="325.89350101538" />
    <line x1="222" y1="211.57814771583415" x2="211" y2="230.63070659909178" />
    <line x1="222" y1="325.89350101538" x2="211" y2="344.94605989863771" />
    <polyline points="233,1.9999999999999911 222,21.052558883257639 233,40.105117766515292 222,59.157676649772938" />
    <line x1="222" y1="59.157676649772945" x2="233" y2="78.2102355330306" />
    <line x1="233" y1="78.210235533030584" x2="222" y2="97.262794416288244" />
    <polyline points="222,97.26279441628823 233,116.31535329954589 222,135.36791218280354 233,154.42047106606117" />
    <line x1="233" y1="154.4204710660612" x2="222" y2="173.47302994931883" />
    <polyline points="222,173.47302994931886 233,192.52558883257649 222,211.57814771583412" />
    <line x1="222" y1="211.57814771583415" x2="233" y2="230.63070659909178" />
    <line x1="233" y1="230.63070659909181" x2="222" y2="249.68326548234944" />
    <polyline points="222,249.68326548234941 233,268.73582436560707 222,287.78838324886476 233,306.84094213212245" />
    <polyline points="233,306.84094213212234 222,325.89350101538 233,344.94605989863771 222,363.9986187818954" />
    <line x1="222" y1="363.99861878189529" x2="233" y2="383.051177665153" />
  </g>
</svg>
