<?xml version="1.0" standalone="no"?>
<!DOCTYPE svg PUBLIC "-//W3C//DTD SVG 1.1//EN" "http://www.w3.org/Graphics/SVG/1.1/DTD/svg11.dtd">
<svg width="444" height="385.051177665153" version="1.1" xmlns="http://www.w3.org/2000/svg">
  <title>Triangular delta maze with 20 cells side</title>
  <desc>Triangular delta maze with 20 cells side generated by The Maze Generator Website (http://www.mazegenerator.net/).</desc>
  <g fill="none" stroke="#000000" stroke-width="2" stroke-linecap="round" stroke-linejoin="round">
    <line x1="222" y1="40.105117766515292" x2="244" y2="40.105117766515292" />
    <line x1="244" y1="78.210235533030584" x2="266" y2="78.210235533030584" />
    <line x1="211" y1="97.262794416288244" x2="233" y2="97.262794416288244" />
    <line x1="178" y1="116.31535329954589" x2="222" y2="116.31535329954589" />
    <line x1="255" y1="135.36791218280354" x2="277" y2="135.36791218280354" />
    <line x1="211" y1="173.47302994931883" x2="233" y2="173.47302994931883" />
    <line x1="299" y1="173.47302994931883" x2="321" y2="173.47302994931883" />
    <line x1="134" y1="192.52558883257649" x2="156" y2="192.52558883257649" />
    <line x1="178" y1="192.52558883257649" x2="200" y2="192.52558883257649" />
    <line x1="244" y1="192.52558883257649" x2="266" y2="192.52558883257649" />
    <line x1="101" y1="211.57814771583415" x2="167" y2="211.57814771583415" />
    <line x1="189" y1="211.57814771583415" x2="211" y2="211.57814771583415" />
    <line x1="299" y1="211.57814771583415" x2="343" y2="211.57814771583415" />
    <line x1="112" y1="230.63070659909178" x2="134" y2="230.63070659909178" />
    <line x1="310" y1="230.63070659909178" x2="332" y2="230.63070659909178" />
    <line x1="145" y1="249.68326548234944" x2="167" y2="249.68326548234944" />
    <line x1="277" y1="249.68326548234944" x2="299" y2="249.68326548234944" />
    <line x1="321" y1="249.68326548234944" x2="343" y2="249.68326548234944" />
    <line x1="90" y1="268.73582436560707" x2="112" y2="268.73582436560707" />
    <line x1="134" y1="268.73582436560707" x2="156" y2="268.73582436560707" />
    <line x1="266" y1="268.73582436560707" x2="288" y2="268.73582436560707" />
    <line x1="310" y1="268.73582436560707" x2="354" y2="268.73582436560707" />
    <line x1="57" y1="287.78838324886476" x2="101" y2="287.78838324886476" />
    <line x1="145" y1="287.78838324886476" x2="255" y2="287.78838324886476" />
    <line x1="299" y1="287.78838324886476" x2="321" y2="287.78838324886476" />
    <line x1="68" y1="306.84094213212234" x2="112" y2="306.84094213212234" />
    <line x1="178" y1="306.84094213212234" x2="200" y2="306.84094213212234" />
    <line x1="222" y1="306.84094213212234" x2="244" y2="306.84094213212234" />
    <line x1="288" y1="306.84094213212234" x2="310" y2="306.84094213212234" />
    <line x1="354" y1="306.84094213212234" x2="376" y2="306.84094213212234" />
    <line x1="79" y1="325.89350101538" x2="123" y2="325.89350101538" />
    <line x1="145" y1="325.89350101538" x2="233" y2="325.89350101538" />
    <line x1="277" y1="325.89350101538" x2="321" y2="325.89350101538" />
    <line x1="343" y1="325.89350101538" x2="365" y2="325.89350101538" />
    <line x1="46" y1="344.94605989863771" x2="90" y2="344.94605989863771" />
    <line x1="112" y1="344.94605989863771" x2="134" y2="344.94605989863771" />
    <line x1="156" y1="344.94605989863771" x2="178" y2="344.94605989863771" />
    <line x1="222" y1="344.94605989863771" x2="266" y2="344.94605989863771" />
    <line x1="288" y1="344.94605989863771" x2="310" y2="344.94605989863771" />
    <line x1="354" y1="344.94605989863771" x2="398" y2="344.94605989863771" />
    <line x1="13" y1="363.99861878189529" x2="35" y2="363.99861878189529" />
    <line x1="57" y1="363.99861878189529" x2="79" y2="363.99861878189529" />
    <line x1="123" y1="363.99861878189529" x2="167" y2="363.99861878189529" />
    <line x1="211" y1="363.99861878189529" x2="233" y2="363.99861878189529" />
    <line x1="255" y1="363.99861878189529" x2="277" y2="363.99861878189529" />
    <line x1="387" y1="363.99861878189529" x2="409" y2="363.99861878189529" />
    <polyline points="442,383.051177665153 2,383.051177665153 13,363.99861878189529" />
    <polyline points="13,363.9986187818954 24,344.94605989863771 35,325.89350101538 46,306.84094213212234" />
    <line x1="46" y1="344.94605989863771" x2="35" y2="363.9986187818954" />
    <line x1="57" y1="287.78838324886476" x2="46" y2="306.84094213212245" />
    <line x1="57" y1="363.99861878189529" x2="46" y2="383.051177665153" />
    <line x1="68" y1="268.73582436560707" x2="57" y2="287.78838324886476" />
    <polyline points="68,306.84094213212234 57,325.89350101538 68,344.94605989863771" />
    <line x1="79" y1="249.68326548234941" x2="68" y2="268.73582436560707" />
    <line x1="90" y1="230.63070659909181" x2="79" y2="249.68326548234944" />
    <line x1="79" y1="249.68326548234941" x2="90" y2="268.73582436560707" />
    <line x1="101" y1="211.57814771583415" x2="90" y2="230.63070659909178" />
    <line x1="101" y1="363.99861878189529" x2="90" y2="383.051177665153" />
    <line x1="112" y1="230.63070659909181" x2="101" y2="249.68326548234944" />
    <polyline points="101,325.89350101538 112,344.94605989863771 101,363.9986187818954" />
    <line x1="123" y1="173.47302994931886" x2="112" y2="192.52558883257649" />
    <line x1="123" y1="249.68326548234941" x2="112" y2="268.73582436560707" />
    <line x1="134" y1="154.4204710660612" x2="123" y2="173.47302994931883" />
    <line x1="134" y1="230.63070659909181" x2="123" y2="249.68326548234944" />
    <line x1="134" y1="268.73582436560707" x2="123" y2="287.78838324886476" />
    <line x1="134" y1="306.84094213212234" x2="123" y2="325.89350101538" />
    <line x1="145" y1="135.36791218280354" x2="134" y2="154.42047106606117" />
    <line x1="145" y1="173.47302994931886" x2="134" y2="192.52558883257649" />
    <line x1="145" y1="325.89350101538" x2="134" y2="344.94605989863771" />
    <line x1="156" y1="116.31535329954589" x2="145" y2="135.36791218280354" />
    <line x1="156" y1="154.4204710660612" x2="145" y2="173.47302994931883" />
    <line x1="156" y1="344.94605989863771" x2="145" y2="363.9986187818954" />
    <line x1="167" y1="97.26279441628823" x2="156" y2="116.31535329954589" />
    <line x1="167" y1="135.36791218280354" x2="156" y2="154.42047106606117" />
    <line x1="167" y1="173.47302994931886" x2="156" y2="192.52558883257649" />
    <line x1="167" y1="211.57814771583415" x2="156" y2="230.63070659909178" />
    <line x1="167" y1="249.68326548234941" x2="156" y2="268.73582436560707" />
    <line x1="167" y1="287.78838324886476" x2="156" y2="306.84094213212245" />
    <line x1="178" y1="78.210235533030584" x2="167" y2="97.262794416288244" />
    <line x1="178" y1="116.31535329954589" x2="167" y2="135.36791218280354" />
    <line x1="178" y1="154.4204710660612" x2="167" y2="173.47302994931883" />
    <line x1="178" y1="230.63070659909181" x2="167" y2="249.68326548234944" />
    <line x1="178" y1="268.73582436560707" x2="167" y2="287.78838324886476" />
    <line x1="189" y1="59.157676649772945" x2="178" y2="78.2102355330306" />
    <line x1="178" y1="78.210235533030584" x2="189" y2="97.262794416288244" />
    <line x1="189" y1="135.36791218280354" x2="178" y2="154.42047106606117" />
    <line x1="189" y1="211.57814771583415" x2="178" y2="230.63070659909178" />
    <line x1="189" y1="249.68326548234941" x2="178" y2="268.73582436560707" />
    <line x1="178" y1="344.94605989863771" x2="189" y2="363.9986187818954" />
    <line x1="200" y1="40.105117766515292" x2="189" y2="59.157676649772938" />
    <line x1="189" y1="97.26279441628823" x2="200" y2="116.31535329954589" />
    <line x1="200" y1="154.4204710660612" x2="189" y2="173.47302994931883" />
    <line x1="200" y1="230.63070659909181" x2="189" y2="249.68326548234944" />
    <line x1="189" y1="363.99861878189529" x2="200" y2="383.051177665153" />
    <line x1="211" y1="21.052558883257639" x2="200" y2="40.105117766515292" />
    <line x1="211" y1="59.157676649772945" x2="200" y2="78.2102355330306" />
    <line x1="200" y1="78.210235533030584" x2="211" y2="97.262794416288244" />
    <line x1="211" y1="135.36791218280354" x2="200" y2="154.42047106606117" />
    <line x1="200" y1="154.4204710660612" x2="211" y2="173.47302994931883" />
    <line x1="211" y1="173.47302994931886" x2="200" y2="192.52558883257649" />
    <line x1="211" y1="211.57814771583415" x2="200" y2="230.63070659909178" />
    <line x1="200" y1="306.84094213212234" x2="211" y2="325.89350101538" />
    <line x1="200" y1="344.94605989863771" x2="211" y2="363.9986187818954" />
    <line x1="222" y1="1.9999999999999911" x2="211" y2="21.052558883257639" />
    <line x1="222" y1="40.105117766515292" x2="211" y2="59.157676649772938" />
    <line x1="211" y1="59.157676649772945" x2="222" y2="78.2102355330306" />
    <line x1="222" y1="192.52558883257649" x2="211" y2="211.57814771583412" />
    <line x1="222" y1="1.9999999999999911" x2="233" y2="21.052558883257639" />
    <polyline points="222,116.31535329954589 233,135.36791218280354 222,154.42047106606117" />
    <polyline points="233,173.47302994931886 222,192.52558883257649 233,211.57814771583412" />
    <line x1="233" y1="21.052558883257639" x2="244" y2="40.105117766515292" />
    <line x1="233" y1="59.157676649772945" x2="244" y2="78.2102355330306" />
    <line x1="233" y1="97.26279441628823" x2="244" y2="116.31535329954589" />
    <line x1="244" y1="154.4204710660612" x2="233" y2="173.47302994931883" />
    <line x1="244" y1="192.52558883257649" x2="233" y2="211.57814771583412" />
    <line x1="233" y1="211.57814771583415" x2="244" y2="230.63070659909178" />
    <line x1="244" y1="344.94605989863771" x2="233" y2="363.9986187818954" />
    <line x1="233" y1="363.99861878189529" x2="244" y2="383.051177665153" />
    <line x1="244" y1="40.105117766515292" x2="255" y2="59.157676649772938" />
    <line x1="255" y1="135.36791218280354" x2="244" y2="154.42047106606117" />
    <line x1="255" y1="173.47302994931886" x2="244" y2="192.52558883257649" />
    <line x1="244" y1="230.63070659909181" x2="255" y2="249.68326548234944" />
    <polyline points="244,306.84094213212234 255,325.89350101538 244,344.94605989863771" />
    <line x1="255" y1="59.157676649772945" x2="266" y2="78.2102355330306" />
    <line x1="255" y1="97.26279441628823" x2="266" y2="116.31535329954589" />
    <line x1="266" y1="154.4204710660612" x2="255" y2="173.47302994931883" />
    <line x1="255" y1="211.57814771583415" x2="266" y2="230.63070659909178" />
    <line x1="255" y1="249.68326548234941" x2="266" y2="268.73582436560707" />
    <line x1="255" y1="287.78838324886476" x2="266" y2="306.84094213212245" />
    <line x1="266" y1="78.210235533030584" x2="277" y2="97.262794416288244" />
    <line x1="266" y1="116.31535329954589" x2="277" y2="135.36791218280354" />
    <line x1="277" y1="211.57814771583415" x2="266" y2="230.63070659909178" />
    <line x1="266" y1="230.63070659909181" x2="277" y2="249.68326548234944" />
    <line x1="266" y1="268.73582436560707" x2="277" y2="287.78838324886476" />
    <polyline points="266,306.84094213212234 277,325.89350101538 266,344.94605989863771" />
    <line x1="277" y1="97.26279441628823" x2="288" y2="116.31535329954589" />
    <line x1="277" y1="135.36791218280354" x2="288" y2="154.42047106606117" />
    <line x1="288" y1="154.4204710660612" x2="277" y2="173.47302994931883" />
    <line x1="277" y1="287.78838324886476" x2="288" y2="306.84094213212245" />
    <line x1="288" y1="344.94605989863771" x2="277" y2="363.9986187818954" />
    <line x1="288" y1="116.31535329954589" x2="299" y2="135.36791218280354" />
    <line x1="299" y1="173.47302994931886" x2="288" y2="192.52558883257649" />
    <line x1="299" y1="211.57814771583415" x2="288" y2="230.63070659909178" />
    <line x1="288" y1="230.63070659909181" x2="299" y2="249.68326548234944" />
    <line x1="299" y1="363.99861878189529" x2="288" y2="383.051177665153" />
    <line x1="299" y1="135.36791218280354" x2="310" y2="154.42047106606117" />
    <line x1="310" y1="192.52558883257649" x2="299" y2="211.57814771583412" />
    <line x1="310" y1="154.4204710660612" x2="321" y2="173.47302994931883" />
    <line x1="321" y1="287.78838324886476" x2="310" y2="306.84094213212245" />
    <line x1="321" y1="325.89350101538" x2="310" y2="344.94605989863771" />
    <line x1="321" y1="173.47302994931886" x2="332" y2="192.52558883257649" />
    <line x1="332" y1="268.73582436560707" x2="321" y2="287.78838324886476" />
    <line x1="332" y1="306.84094213212234" x2="321" y2="325.89350101538" />
    <line x1="332" y1="344.94605989863771" x2="321" y2="363.9986187818954" />
    <line x1="321" y1="363.99861878189529" x2="332" y2="383.051177665153" />
    <line x1="332" y1="192.52558883257649" x2="343" y2="211.57814771583412" />
    <line x1="332" y1="230.63070659909181" x2="343" y2="249.68326548234944" />
    <line x1="343" y1="287.78838324886476" x2="332" y2="306.84094213212245" />
    <line x1="332" y1="306.84094213212234" x2="343" y2="325.89350101538" />
    <line x1="343" y1="211.57814771583415" x2="354" y2="230.63070659909178" />
    <line x1="343" y1="249.68326548234941" x2="354" y2="268.73582436560707" />
    <line x1="354" y1="344.94605989863771" x2="343" y2="363.9986187818954" />
    <line x1="354" y1="230.63070659909181" x2="365" y2="249.68326548234944" />
    <polyline points="354,268.73582436560707 365,287.78838324886476 354,306.84094213212245" />
    <line x1="365" y1="363.99861878189529" x2="354" y2="383.051177665153" />
    <polyline points="365,249.68326548234941 376,268.73582436560707 387,287.78838324886476" />
    <line x1="376" y1="306.84094213212234" x2="387" y2="325.89350101538" />
    <line x1="387" y1="287.78838324886476" x2="398" y2="306.84094213212245" />
    <polyline points="398,306.84094213212234 409,325.89350101538 398,344.94605989863771" />
    <polyline points="409,325.89350101538 420,344.94605989863771 409,363.9986187818954" />
    <line x1="420" y1="344.94605989863771" x2="431" y2="363.9986187818954" />
    <line x1="431" y1="363.99861878189529" x2="442" y2="383.051177665153" />
  </g>
</svg>
